HIERARCHY
ROOT Hips
{
	OFFSET 8.91173 92.52490 -21.95620
	CHANNELS 6 Xposition Yposition Zposition Zrotation Xrotation Yrotation
	JOINT Spine
	{
		OFFSET 0.00000 14.09320 -1.51142
		CHANNELS 3 Zrotation Xrotation Yrotation
		JOINT Spine1
		{
			OFFSET 0.00000 8.69660 0.00000
			CHANNELS 3 Zrotation Xrotation Yrotation
			JOINT Spine2
			{
				OFFSET 0.00000 8.69660 0.00000
				CHANNELS 3 Zrotation Xrotation Yrotation
				JOINT Spine3
				{
					OFFSET 0.00000 8.69660 0.00000
					CHANNELS 3 Zrotation Xrotation Yrotation
					JOINT Neck
					{
						OFFSET 0.00000 11.18130 1.11813
						CHANNELS 3 Zrotation Xrotation Yrotation
						JOINT Neck1
						{
							OFFSET 0.00000 5.70631 0.00000
							CHANNELS 3 Zrotation Xrotation Yrotation
							JOINT Head
							{
								OFFSET 0.00000 5.70631 0.00000
								CHANNELS 3 Zrotation Xrotation Yrotation
								End site
								{
									OFFSET 0.00000 9.71257 0.00000
								}
							}
						}
					}
					JOINT RightShoulder
					{
						OFFSET 0.00000 7.98668 5.19711
						CHANNELS 3 Zrotation Xrotation Yrotation
						JOINT RightArm
						{
							OFFSET 0.00000 18.31580 0.00000
							CHANNELS 3 Zrotation Xrotation Yrotation
							JOINT RightForeArm
							{
								OFFSET 0.00000 28.87420 0.00000
								CHANNELS 3 Zrotation Xrotation Yrotation
								JOINT RightHand
								{
									OFFSET 0.00000 23.87720 0.00000
									CHANNELS 3 Zrotation Xrotation Yrotation
									JOINT RightHandThumb1
									{
										OFFSET -2.41094 4.67063 3.47303
										CHANNELS 3 Zrotation Xrotation Yrotation
										JOINT RightHandThumb2
										{
											OFFSET 0.00000 3.95207 0.00000
											CHANNELS 3 Zrotation Xrotation Yrotation
											JOINT RightHandThumb3
											{
												OFFSET 0.00000 2.15568 0.00000
												CHANNELS 3 Zrotation Xrotation Yrotation
												End site
												{
													OFFSET 0.00000 1.91616 0.00000
												}
											}
										}
									}
									JOINT RightHandIndex1
									{
										OFFSET 0.00000 12.45500 2.51496
										CHANNELS 3 Zrotation Xrotation Yrotation
										JOINT RightHandIndex2
										{
											OFFSET 0.00000 4.79039 0.00000
											CHANNELS 3 Zrotation Xrotation Yrotation
											JOINT RightHandIndex3
											{
												OFFSET 0.00000 2.63472 0.00000
												CHANNELS 3 Zrotation Xrotation Yrotation
												End site
												{
													OFFSET 0.00000 1.91616 0.00000
												}
											}
										}
									}
									JOINT RightHandMiddle1
									{
										OFFSET 0.00000 12.45500 -0.07984
										CHANNELS 3 Zrotation Xrotation Yrotation
										JOINT RightHandMiddle2
										{
											OFFSET 0.00000 5.38919 0.00000
											CHANNELS 3 Zrotation Xrotation Yrotation
											JOINT RightHandMiddle3
											{
												OFFSET 0.00000 3.11376 0.00000
												CHANNELS 3 Zrotation Xrotation Yrotation
												End site
												{
													OFFSET 0.00000 2.03592 0.00000
												}
											}
										}
									}
									JOINT RightHandRing1
									{
										OFFSET 0.00000 11.07780 -2.67464
										CHANNELS 3 Zrotation Xrotation Yrotation
										JOINT RightHandRing2
										{
											OFFSET 0.00000 4.91015 0.00000
											CHANNELS 3 Zrotation Xrotation Yrotation
											JOINT RightHandRing3
											{
												OFFSET 0.00000 3.11376 0.00000
												CHANNELS 3 Zrotation Xrotation Yrotation
												End site
												{
													OFFSET 0.00000 2.03592 0.00000
												}
											}
										}
									}
									JOINT RightHandPinky1
									{
										OFFSET 0.00000 9.70055 -5.26943
										CHANNELS 3 Zrotation Xrotation Yrotation
										JOINT RightHandPinky2
										{
											OFFSET 0.00000 3.95207 0.00000
											CHANNELS 3 Zrotation Xrotation Yrotation
											JOINT RightHandPinky3
											{
												OFFSET 0.00000 2.15568 0.00000
												CHANNELS 3 Zrotation Xrotation Yrotation
												End site
												{
													OFFSET 0.00000 1.91616 0.00000
												}
											}
										}
									}
								}
							}
						}
					}
					JOINT LeftShoulder
					{
						OFFSET 0.00000 7.98668 5.19711
						CHANNELS 3 Zrotation Xrotation Yrotation
						JOINT LeftArm
						{
							OFFSET 0.00000 18.31580 0.00000
							CHANNELS 3 Zrotation Xrotation Yrotation
							JOINT LeftForeArm
							{
								OFFSET 0.00000 28.87420 0.00000
								CHANNELS 3 Zrotation Xrotation Yrotation
								JOINT LeftHand
								{
									OFFSET 0.00000 23.87720 0.00000
									CHANNELS 3 Zrotation Xrotation Yrotation
									JOINT LeftHandThumb1
									{
										OFFSET 2.41094 4.67063 3.47303
										CHANNELS 3 Zrotation Xrotation Yrotation
										JOINT LeftHandThumb2
										{
											OFFSET 0.00000 3.95207 0.00000
											CHANNELS 3 Zrotation Xrotation Yrotation
											JOINT LeftHandThumb3
											{
												OFFSET 0.00000 2.15568 0.00000
												CHANNELS 3 Zrotation Xrotation Yrotation
												End site
												{
													OFFSET 0.00000 1.60000 0.00000
												}
											}
										}
									}
									JOINT LeftHandIndex1
									{
										OFFSET 0.00000 12.45500 2.51496
										CHANNELS 3 Zrotation Xrotation Yrotation
										JOINT LeftHandIndex2
										{
											OFFSET 0.00000 4.79039 0.00000
											CHANNELS 3 Zrotation Xrotation Yrotation
											JOINT LeftHandIndex3
											{
												OFFSET 0.00000 2.63472 0.00000
												CHANNELS 3 Zrotation Xrotation Yrotation
												End site
												{
													OFFSET 0.00000 1.91616 0.00000
												}
											}
										}
									}
									JOINT LeftHandMiddle1
									{
										OFFSET 0.00000 12.45500 -0.07984
										CHANNELS 3 Zrotation Xrotation Yrotation
										JOINT LeftHandMiddle2
										{
											OFFSET 0.00000 5.38919 0.00000
											CHANNELS 3 Zrotation Xrotation Yrotation
											JOINT LeftHandMiddle3
											{
												OFFSET 0.00000 3.11376 0.00000
												CHANNELS 3 Zrotation Xrotation Yrotation
												End site
												{
													OFFSET 0.00000 2.03592 0.00000
												}
											}
										}
									}
									JOINT LeftHandRing1
									{
										OFFSET 0.00000 11.07780 -2.67464
										CHANNELS 3 Zrotation Xrotation Yrotation
										JOINT LeftHandRing2
										{
											OFFSET 0.00000 4.91015 0.00000
											CHANNELS 3 Zrotation Xrotation Yrotation
											JOINT LeftHandRing3
											{
												OFFSET 0.00000 3.11376 0.00000
												CHANNELS 3 Zrotation Xrotation Yrotation
												End site
												{
													OFFSET 0.00000 2.03592 0.00000
												}
											}
										}
									}
									JOINT LeftHandPinky1
									{
										OFFSET 0.00000 9.70055 -5.26943
										CHANNELS 3 Zrotation Xrotation Yrotation
										JOINT LeftHandPinky2
										{
											OFFSET 0.00000 3.95207 0.00000
											CHANNELS 3 Zrotation Xrotation Yrotation
											JOINT LeftHandPinky3
											{
												OFFSET 0.00000 2.15568 0.00000
												CHANNELS 3 Zrotation Xrotation Yrotation
												End site
												{
													OFFSET 0.00000 1.91616 0.00000
												}
											}
										}
									}
								}
							}
						}
					}
				}
			}
		}
	}
	JOINT RightUpLeg
	{
		OFFSET -10.06560 0.00000 0.00000
		CHANNELS 3 Zrotation Xrotation Yrotation
		JOINT RightLeg
		{
			OFFSET 0.00000 -42.98740 0.00000
			CHANNELS 3 Zrotation Xrotation Yrotation
			JOINT RightFoot
			{
				OFFSET 0.00000 -44.62500 0.00000
				CHANNELS 3 Zrotation Xrotation Yrotation
				JOINT RightForeFoot
				{
					OFFSET 0.00000 -3.74821 0.00000
					CHANNELS 3 Zrotation Xrotation Yrotation
					JOINT RightToeBase
					{
						OFFSET 0.00000 0.00000 14.67920
						CHANNELS 3 Zrotation Xrotation Yrotation
						End site
						{
							OFFSET 0.00000 0.00000 10.36040
						}
					}
				}
			}
		}
	}
	JOINT LeftUpLeg
	{
		OFFSET 10.06560 0.00000 0.00000
		CHANNELS 3 Zrotation Xrotation Yrotation
		JOINT LeftLeg
		{
			OFFSET 0.00000 -42.98740 0.00000
			CHANNELS 3 Zrotation Xrotation Yrotation
			JOINT LeftFoot
			{
				OFFSET 0.00000 -44.62500 0.00000
				CHANNELS 3 Zrotation Xrotation Yrotation
				JOINT LeftForeFoot
				{
					OFFSET 0.00000 -3.74821 0.00000
					CHANNELS 3 Zrotation Xrotation Yrotation
					JOINT LeftToeBase
					{
						OFFSET 0.00000 0.00000 14.67920
						CHANNELS 3 Zrotation Xrotation Yrotation
						End site
						{
							OFFSET 0.00000 0.00000 10.67280
						}
					}
				}
			}
		}
	}
}
MOTION
Frames: 6
Frame Time: 0.25
15.7099 88.4755 -77.0501 -9.2061 0.220309 -177.804 -8.19996 0.584265 -0.647346 -1.30097 4.10981 0.500394 -1.95143 -1.33713 -1.58408 0.918313 1.75342 -1.33108 2.30391 13.5986 -2.61385 0.981076 3.39819 -7.89023 1.05335 -10.4226 -0.670725 90 0 0 78.591 5.38073 -27.6884 0.000107457 70.3832 48.3507 -3.85348 -5.95112 1.13373e-06 5.63743 28.1965 -2.67036 3.06904e-32 -3.97569e-16 4.42296e-15 9.31058e-32 -1.19271e-15 4.47266e-15 -67.8412 -5.56597e-15 -1.27222e-14 -6.36111e-15 3.97569e-15 3.18055e-15 -5.56597e-15 -7.95139e-16 -0.0 -63.9804 -1.59028e-15 -9.54166e-15 4.77083e-15 7.95139e-16 -0.0 4.41391e-31 3.97569e-15 -6.36111e-15 -49.2 -3.18055e-15 -0.0 -8.82781e-32 -1.59028e-15 -3.18055e-15 -3.18055e-15 0.0 -0.0 -36.2892 -6.36111e-15 -3.18055e-15 3.18055e-15 -9.54166e-15 -6.36111e-15 -3.18055e-15 3.18055e-15 -3.18055e-15 -90 0 0 -75.43 4.90963 47.3424 9.16716e-07 75.1987 -32.2207 -9.72697 -5.39854 1.21455e-06 -39.5091 1.81505 1.4961 -1.59028e-15 0.0 -6.36111e-15 -4.41391e-32 -7.95139e-16 -3.18055e-15 22.6981 3.18055e-15 -4.77083e-15 1.59028e-15 6.36111e-15 1.59028e-15 1.59028e-15 6.36111e-15 1.59028e-15 26.0995 3.18055e-15 -6.36111e-15 4.77083e-15 -6.36111e-15 -2.38542e-15 -7.94503e-31 -1.90833e-14 -2.38542e-15 -31.0905 3.18055e-15 1.27222e-14 -4.77083e-15 3.18055e-15 1.27222e-14 -4.77083e-15 -1.59028e-15 -0.0 -84.5059 -9.54166e-15 1.59028e-14 1.27222e-14 6.36111e-15 1.27222e-14 9.54166e-15 -3.18055e-15 6.36111e-15 -11.9541 -22.0497 -4.0192 -1.83866e-16 29.901 -2.29308e-16 2.86428 -17.7743 8.23227 0.0 0.0 -7.95139e-16 3.97569e-16 7.29294 -0.0 -11.9021 -7.17938 9.0291 4.23488e-16 21.9622 -8.57357e-15 5.37252 -18.5544 4.19911 0.0 0.0 -3.18055e-15 -1.31559e-16 1.21085 -3.18127e-15
15.6624 88.6673 -77.1054 -9.08265 -0.000883507 -177.893 -7.8932 0.801258 -0.742087 -1.11255 4.09605 0.412472 -1.70393 -1.28953 -2.3253 1.43733 1.78423 -1.46117 3.10056 13.739 -3.64758 1.38141 3.56139 -8.85168 1.5558 -10.0756 -0.799473 90 0 0 79.1723 7.77339 -20.4947 -0.0100015 73.9631 47.8424 -3.95228 3.51535 0.000204394 0.0218172 28.7702 -0.0101631 1.59028e-15 0.0 -6.36111e-15 1.59028e-15 0.0 -3.97569e-16 -60.2835 7.55382e-15 -9.54166e-15 -3.18055e-15 1.19271e-15 -0.0 0.0 7.55382e-15 -0.0 -58.1156 3.97569e-15 -1.43125e-14 -8.82781e-32 -1.59028e-15 -3.18055e-15 -4.41391e-32 -1.59028e-15 -1.59028e-15 -41.4679 3.18055e-15 -1.27222e-14 -6.36111e-15 -7.95139e-16 -0.0 -0.0 -2.38542e-15 -0.0 -11.5036 3.18055e-15 -3.97569e-15 -9.54166e-15 0.0 3.97569e-15 -6.36111e-15 -1.59028e-15 7.95139e-16 -90 0 0 -75.7826 4.80766 45.6685 0.000442626 74.1381 -43.0536 -5.28043 -0.311978 0.000389033 -35.7404 13.8325 9.76259 -6.36111e-15 0.0 -3.18055e-15 9.54166e-15 -1.59028e-15 3.18055e-15 28.7762 1.27222e-14 -9.14409e-15 3.97569e-16 3.18055e-15 1.19271e-15 3.97569e-16 0.0 3.97569e-15 28.1786 6.36111e-15 -7.95139e-15 1.19271e-15 0.0 1.98785e-15 -2.78299e-15 3.18055e-15 2.38542e-15 -14.7275 9.54166e-15 9.54166e-15 3.18055e-15 -6.36111e-15 -3.18055e-15 1.27222e-14 -3.18055e-15 -6.36111e-15 -63.0027 -7.35503e-15 2.22639e-14 -2.64834e-31 1.19271e-15 1.27222e-14 -9.93923e-16 7.95139e-16 -0.0 -11.4247 -21.7655 -2.38567 1.26748e-15 29.8565 8.99633e-15 2.63219 -27.3745 5.334 1.98785e-16 0.0 -0.0 0.0 0.12987 -0.0 -11.9676 -6.74892 8.73325 -2.50756e-17 20.7143 8.50092e-15 5.49419 -17.941 4.48549 9.93923e-17 3.97569e-16 -0.0 -1.98785e-16 1.84625 -0.0
16.1567 88.5857 -78.231 -8.41735 0.00154638 -177.895 -7.08519 0.29354 -0.664567 -1.09629 4.05336 0.401384 -1.67194 -1.36882 -2.10648 1.28069 1.87043 -1.41323 2.75002 14.0415 -2.71445 1.11248 2.6053 -7.32677 1.40319 -11.5246 -0.666359 90 0 0 77.8984 6.14801 -22.3525 5.86211e-06 72.4329 50.3105 -4.63937 2.11057 -7.22461e-08 2.24662 26.2503 -0.994075 -1.59028e-15 0.0 -1.59028e-15 -3.18055e-15 0.0 -2.38542e-15 -65.6977 2.38542e-15 -0.0 -3.18055e-15 -3.97569e-16 -0.0 -4.77083e-15 1.98785e-15 3.18055e-15 -62.9383 3.97569e-16 3.18055e-15 4.77083e-15 -4.37326e-15 -0.0 1.59028e-15 -7.95139e-15 3.18055e-15 -45.5186 -1.59028e-15 3.18055e-15 1.76556e-31 3.18055e-15 -3.18055e-15 3.18055e-15 7.95139e-15 -1.59028e-15 -16.7648 3.18055e-15 3.18055e-15 3.18055e-15 3.18055e-15 9.54166e-15 -3.18055e-15 0.0 1.59028e-15 -90 0 0 -75.3224 4.13693 46.1888 9.27552e-07 74.2512 -41.5901 -4.74682 0.187117 2.24295e-09 -34.9814 13.274 9.12725 -3.18055e-15 4.77083e-15 3.18055e-15 6.36111e-15 9.54166e-15 3.18055e-15 24.951 -3.18055e-15 1.93815e-15 -1.44119e-15 6.36111e-15 -9.93923e-16 -1.73937e-15 9.54166e-15 -2.88238e-15 22.6842 -3.18055e-15 -9.93923e-17 -1.98785e-15 0.0 2.68359e-15 -5.96354e-16 -3.18055e-15 1.2921e-15 -16.7459 -9.54166e-15 -1.27222e-14 6.36111e-15 6.36111e-15 6.36111e-15 6.36111e-15 -3.18055e-15 -3.18055e-15 -60.6762 6.36111e-15 -1.27222e-14 3.97569e-16 0.0 -3.18055e-15 -0.0 -2.78299e-15 -0.0 -10.1581 -21.1031 -1.70241 3.88539e-16 29.1408 3.64147e-15 1.58404 -18.6089 4.93809 0.0 0.0 -1.59028e-15 2.92669e-16 6.99473 -2.4033e-15 -10.8765 -6.74818 8.71796 4.93595e-17 22.099 -1.71637e-15 5.19783 -19.0804 4.57572 3.97569e-16 -3.97569e-16 -1.59028e-15 3.75933e-17 1.35419 -1.59072e-15
16.45 88.6248 -78.5022 -8.28444 -0.467986 -177.022 -6.95831 0.536594 -0.691223 -1.08122 4.09518 0.386765 -1.64641 -1.45039 -2.33051 1.33115 1.73645 -1.43082 2.61217 13.976 -2.37148 0.908689 1.59219 -6.36411 1.28014 -12.9287 -0.580739 90 0 0 77.5852 5.51844 -24.5423 0.000520777 71.9285 49.0532 -4.88731 2.32236 -7.65847e-05 1.63001 24.6502 -0.678397 -2.20695e-32 7.95139e-16 1.59028e-15 1.59028e-15 0.0 1.59028e-15 -64.2949 -3.97569e-15 6.36111e-15 1.59028e-15 0.0 -3.18055e-15 3.18055e-15 -5.1684e-15 -6.36111e-15 -61.3245 -5.56597e-15 3.18055e-15 -4.77083e-15 3.97569e-15 6.36111e-15 -4.41391e-32 -7.95139e-16 -3.18055e-15 -45.1272 1.59028e-15 3.18055e-15 -6.36111e-15 -3.18055e-15 -6.36111e-15 7.06225e-31 6.36111e-15 -6.36111e-15 -22.0173 6.36111e-15 1.59028e-15 -6.36111e-15 6.36111e-15 3.18055e-15 -9.54166e-15 0.0 -0.0 -90 0 0 -75.5384 4.76387 48.5554 1.70876e-06 74.1656 -40.3943 -5.36824 0.24664 3.67051e-06 -35.0198 14.0994 9.68686 3.18055e-15 -3.18055e-15 3.18055e-15 0.0 3.18055e-15 -0.0 24.1166 6.36111e-15 6.36111e-15 2.78299e-15 -3.18055e-15 3.97569e-16 -7.95139e-16 -3.18055e-15 -0.0 21.3228 6.36111e-15 3.97569e-15 7.95139e-16 -9.54166e-15 -3.97569e-15 1.59028e-15 3.18055e-15 -0.0 -17.1391 6.36111e-15 -3.18055e-15 3.18055e-15 3.18055e-15 -0.0 -3.18055e-15 0.0 -3.18055e-15 -59.9444 1.03368e-14 -1.59028e-14 -3.97569e-16 -2.18663e-15 -3.18055e-15 1.98785e-16 1.78906e-15 -0.0 -10.2117 -21.0405 -2.74003 5.96122e-16 28.9713 3.18106e-15 1.77054 -18.8687 4.93742 -1.98785e-16 0.0 -0.0 9.85322e-17 7.06398 -8.0122e-16 -10.5634 -6.96615 8.33059 9.87581e-17 22.0996 -3.43276e-15 4.8209 -19.2001 3.97168 2.98177e-16 -7.95139e-16 -3.18055e-15 -3.37193e-16 1.08752 -3.18113e-15
16.3745 88.9294 -78.9378 -8.00457 -1.33425 -174.844 -7.1844 -1.02682 -0.757078 -1.1206 3.65987 0.427794 -1.62721 -1.66577 -1.97 0.698879 0.904552 -1.29869 0.974124 8.96271 -0.990274 0.0140029 -2.16399 -4.10434 0.425626 -17.5851 -0.346165 90 0 0 76.2478 5.89537 -25.1777 0.000130853 69.7097 31.9378 22.0923 -5.86604 -2.36891e-06 9.95081 14.0425 -2.43758 6.36111e-15 -1.59028e-15 6.36111e-15 6.36111e-15 4.77083e-15 -1.59028e-15 -38.2008 3.18055e-15 -1.11319e-14 -1.59028e-15 0.0 -0.0 -1.59028e-15 0.0 -7.95139e-16 -39.5219 9.54166e-15 -1.19271e-14 1.59028e-15 -9.54166e-15 7.95139e-16 -8.82781e-32 6.36111e-15 7.95139e-16 -22.7737 -6.36111e-15 -5.06901e-15 1.98785e-16 0.0 2.98177e-16 -1.98785e-16 3.18055e-15 -6.95746e-16 33.2199 3.18055e-15 1.59028e-14 -0.0 0.0 3.18055e-15 0.0 1.59028e-15 -0.0 -90 0 0 -76.0251 4.52665 44.7654 -0.000194522 68.136 -30.5497 -8.12427 -1.46131 3.04587e-07 -33.8104 11.3056 7.47957 0.0 1.59028e-15 -0.0 -3.18055e-15 1.59028e-15 -0.0 20.7067 0.0 -7.95139e-16 -1.59028e-15 -3.18055e-15 -1.59028e-15 -7.95139e-16 -3.18055e-15 -0.0 17.0427 -6.36111e-15 1.59028e-15 3.18055e-15 -3.18055e-15 7.95139e-16 1.59028e-15 -6.36111e-15 -7.95139e-16 -17.6262 6.36111e-15 -0.0 3.18055e-15 -3.18055e-15 -9.54166e-15 -1.27222e-14 0.0 -3.18055e-15 -59.3155 5.96354e-15 -0.0 -1.98785e-16 -2.98177e-16 -3.18055e-15 1.98785e-16 -2.98177e-16 -6.36111e-15 -10.485 -20.3339 -3.79949 -8.92229e-17 27.7255 -4.49136e-16 1.26721 -18.7322 3.62479 3.97569e-16 -3.18055e-15 -0.0 1.95845e-16 7.22928 1.60302e-15 -10.6078 -6.37193 6.84185 -2.71903e-17 20.1254 -3.38738e-15 4.53334 -18.3096 2.98833 -3.97569e-16 1.59028e-15 -3.18055e-15 -4.69485e-16 0.989848 -1.59051e-15
16.0157 88.7306 -78.3369 -8.3786 0.12151 -172.989 -8.88429 -1.07632 -0.554655 -1.45261 3.63993 0.574696 -2.04355 -1.81808 -1.01321 -0.533487 0.988083 -1.15353 -0.845403 9.76753 0.494282 -1.10638 -1.32136 -3.14506 -1.28387 -16.6093 -0.158409 90 0 0 80.9437 8.01779 -40.6623 -0.0166293 40.7847 -1.10528 21.8786 -5.13634 -0.00016865 13.0011 6.26069 -1.44275 -4.77083e-15 1.59028e-14 3.18055e-15 -1.59028e-15 -7.95139e-16 -0.0 -24.8318 -3.18055e-15 3.18055e-15 -0.0 0.0 3.18055e-15 -6.36111e-15 9.54166e-15 -6.36111e-15 -25.6443 -6.36111e-15 -3.18055e-15 -3.18055e-15 -3.18055e-15 6.36111e-15 -6.36111e-15 -6.36111e-15 -0.0 -12.7425 -3.18055e-15 -6.36111e-15 3.53113e-31 -3.18055e-15 6.36111e-15 3.18055e-15 -3.18055e-15 -0.0 26.7781 -2.78299e-15 -3.18055e-15 3.97569e-15 3.77691e-15 -3.18055e-15 1.19271e-15 -6.95746e-15 -3.18055e-15 -90 0 0 -76.4477 6.38832 36.2715 0.000814912 39.7381 -6.23247 -8.72426 -3.93389 -0.000473251 -31.2951 5.17966 3.14167 3.18055e-15 3.18055e-15 -0.0 1.59028e-15 -9.54166e-15 -3.18055e-15 13.3867 0.0 3.18055e-15 3.53113e-31 -6.36111e-15 3.18055e-15 1.59028e-15 -3.18055e-15 6.36111e-15 8.48432 3.18055e-15 3.18055e-15 -1.59028e-15 -1.59028e-14 -0.0 -3.53113e-31 -1.27222e-14 -1.59028e-15 -14.1606 3.18055e-15 9.54166e-15 -1.59028e-15 -6.36111e-15 3.18055e-15 -3.18055e-15 0.0 -3.18055e-15 -48.8533 3.97569e-15 6.36111e-15 0.0 1.59028e-15 -0.0 1.27222e-14 1.59028e-15 6.36111e-15 -11.6922 -19.39 -5.78636 9.66512e-16 29.1132 4.55062e-15 1.37428 -19.2226 3.97016 -1.98785e-16 0.0 -3.18055e-15 1.98785e-16 6.58571 -0.0 -11.1539 -5.79653 5.49885 -3.97569e-16 21.4171 -0.0 4.72068 -18.4563 2.83185 9.93923e-17 -7.95139e-16 -0.0 1.98785e-16 1.10231 -0.0
